<?xml version="1.0" encoding="UTF-8"?>
<svg id="i-auto" width="32" height="32" xmlns="http://www.w3.org/2000/svg" class="bs-icon" viewBox="0 0 32 32" fill="none" stroke-linecap="round" stroke-linejoin="round">
  <g stroke="#7a73b7">
      <path d="M14,7 10,7 Q8,7 7,9 L4,17 4,25 Q4,27 6,27 L26,27 Q28,27 28,25 L28,17 25,9 Q24,7 22,7 L17,7
      M21,7 L20,4 13,4 12,7 M5,16 7,17 24,17 27,16 M6,27 L6,29 Q6,30 7,30 L10,30 Q11,30 11,29 L11,27 M21,27 L21,29 Q21,30 22,30 L25,30 Q26,30 26,29 L26,27 M11,24 L 21,24 M6,19 6,20 Q6,21 7,21 L10,21 10,20 Q10,19 9,19 Z M23,19 Q22,19 22,20 L22,21 25,21 Q26,21 26,20 L26,19 Z M4,16 4,13 1,13 Q0,15 2,16 Z M28,13 28,16 30,16 Q32,15 31,13 Z"></path>
  </g>
</svg>