<?xml version="1.0" encoding="UTF-8"?>
<svg id="uuid-df8f667c-f00a-4803-bc85-401177cfb988" data-name="Capa 2" xmlns="http://www.w3.org/2000/svg" width="28" height="28" viewBox="0 0 28 28" fill="#00ab24">
  <defs>
    <style>
      .uuid-b0924480-3663-4cb4-a88e-f5cba23c611e {
        
      }
    </style>
  </defs>
  <g id="uuid-d32aa1b9-dc14-4fc5-9a25-5c0d32559445" data-name="delineado">
    <g>
      <path class="uuid-b0924480-3663-4cb4-a88e-f5cba23c611e" d="M14,0C6.3,0,0,6.3,0,14s.7,5.1,2,7.2L.3,28l7-1.7c2,1.1,4.3,1.7,6.8,1.7,7.7,0,14-6.3,14-14S21.7,0,14,0Zm0,25.7c-2.4,0-4.6-.7-6.4-1.9l-4.1,1,1.1-3.9c-1.4-1.9-2.2-4.3-2.2-6.8C2.3,7.6,7.6,2.3,14,2.3s11.7,5.2,11.7,11.7-5.2,11.7-11.7,11.7Z"/>
      <path class="uuid-b0924480-3663-4cb4-a88e-f5cba23c611e" d="M19.9,16.8c-.2,0-.4-.2-.6-.3-.5-.2-.9-.5-1.4-.8-.1,0-.3-.2-.5-.2-.6,0-.9,.9-1.3,1.3-.2,.1-.4,.3-.6,.3-.2,0-.4,0-.5-.1-.8-.4-1.6-.9-2.2-1.5-.5-.5-1-1-1.4-1.6-.2-.3-.4-.5-.4-.9,0-.8,1-1.1,1.1-1.9,0-.3-.1-.6-.2-.8-.2-.5-.4-.9-.5-1.4-.3-.9-.8-1.3-1.7-1-1.2,.3-1.8,1.9-1.8,3,0,1.6,1,3.2,1.2,3.4,.7,1,1.4,2.1,2.3,3,1.5,1.5,3.6,2.7,5.6,3,.4,0,.8,0,1.2,0,.7,0,1.3-.5,1.8-1,.4-.5,1-1.4,.6-2-.1-.2-.3-.3-.5-.4Z"/>
    </g>
  </g>
</svg>