<?xml version="1.0" encoding="UTF-8"?>
<svg id="i-maleta-bodega-bg" width="32" height="32" xmlns="http://www.w3.org/2000/svg" class="bs-icon" viewBox="0 0 32 32" fill="none" stroke-linecap="round" stroke-linejoin="round">
      <g>
            <path stroke-width="0" fill="currentColor" d="M9,30 Q7,30 7,28 L7,9 Q7,7 9,7 L23,7 Q25,7 25,9 L25,28 Q25,30 23,30 Z
            M22,24 22,13 21,13 21,24 Z M16.5,24 16.5,13 15.5,13 15.5,24 Z M11,24 11,13 10,13 10,24 Z M10,30 C10,32 12,32 12,30 L20,30 C20,32 22,32 22,30 M12,7 12,3 13,3 13,7 M19,7 19,3 20,3 20,7 M12,3 20,3 Q21,3 21,2 Q21,1 20,1 L12,1 Q11,1 11,2 Q11,3 12,3">
            </path>
      </g>
</svg>