<?xml version="1.0" encoding="UTF-8"?>
<svg id="i-mochila" width="32" height="32" xmlns="http://www.w3.org/2000/svg" class="bs-icon" viewBox="0 0 32 32" fill="none" stroke-linecap="round" stroke-linejoin="round">
  <g stroke="#7a73b7"><path d="M8,30 Q6,30 6,28 L6,15 C6,0 26,0 26,15 L26,28 Q 26,30 24,30 Z M11,17 11,15 C11,8 21,8 21,15 L21,17 M10,23 22,23 M17,27 22,27 M12,4 12,3 Q12,2 13,2 L19,2 Q20,2 20,3 L20,4 M6,27 4,27 Q2,27 2,25 L2,21 Q2,19 4,19 L6,19 M26,19 28,19 Q30,19 30,21 L30,25 Q30,27 28,27 L26,27"></path>
  </g>
</svg>