<?xml version="1.0" encoding="UTF-8"?>
<svg id="i-room" width="32" height="32" xmlns="http://www.w3.org/2000/svg" class="bs-icon" viewBox="0 0 32 32" fill="none" stroke-linecap="round" stroke-linejoin="round">
  <g stroke="#7a73b7">
    <path d="M1,25 Q0,25 0,24 L0,16 Q1,14 3,14 L29,14 Q31,14 32,16 L32,24 Q32,25 31,25 Z M3,25 3,27  Q3,28 4,28 L6,28 Q7,28 7,27 L7,25 M25,25 25,27 Q25,28 26,28 L28,28 Q29,28 29,27 L29,25 M2,22 30,22 M3,14 3,4 M29,14 29,4 M3,7 Q16,4 29,7 M6,13 L6,11 Q6,10 7,10 L13,10 Q14,10 14,11 L14,13  M18,13 L18,11 Q18,10 19,10 L25,10 Q26,10 26,11 L26,13"></path>
  </g>
</svg>