<?xml version="1.0" encoding="UTF-8"?>
<svg id="uuid-035cf516-4319-4db3-a09d-decaae7c9a69" data-name="Capa 2" xmlns="http://www.w3.org/2000/svg" width="101.7" height="91.5" viewBox="0 0 101.7 91.5">
  <defs>
    <style>
      .uuid-0f9f84cf-5650-4090-85da-b72ca3cda33e {
        fill: none;
        stroke: #474751;
        stroke-linecap: round;
        stroke-linejoin: round;
        stroke-width: 3px;
      }
    </style>
  </defs>
  <g id="uuid-7b37740b-e527-49eb-b3d7-8f924a19f773" data-name="delineado">
    <g>
      <path class="uuid-0f9f84cf-5650-4090-85da-b72ca3cda33e" d="M18.6,40.3l-8.7-4.9L1.5,39.9l17.9,19,27.4-14.3-5.9,31.2,15.8-9.5,15.1-33.6s14.2-7.4,17.8-9.7c8.6-5.3,16.1-15.2,5.3-17.2-2.1-.4-5.1,.1-8.4-2.7-5.3-4.6-16.4,2.4-22.5,6.6S18.6,40.3,18.6,40.3Z"/>
      <polyline class="uuid-0f9f84cf-5650-4090-85da-b72ca3cda33e" points="61 11.4 33.2 9.5 21.6 16.4 37.9 27.1"/>
      <path class="uuid-0f9f84cf-5650-4090-85da-b72ca3cda33e" d="M48.7,32.9c-1.5,.9-3.3,1.9-3.3,1.9"/>
      <path class="uuid-0f9f84cf-5650-4090-85da-b72ca3cda33e" d="M58.5,27.4c-.9,.5-2.3,1.3-4.2,2.4"/>
      <path class="uuid-0f9f84cf-5650-4090-85da-b72ca3cda33e" d="M70.4,20.6c-1.2,.7-5.3,3-6.6,3.7"/>
      <path class="uuid-0f9f84cf-5650-4090-85da-b72ca3cda33e" d="M87.7,5.5c.8,4.5-1.3,5.9-11.5,11.8"/>
      <line class="uuid-0f9f84cf-5650-4090-85da-b72ca3cda33e" x1="57.1" y1="90" x2="99.9" y2="90"/>
    </g>
  </g>
</svg>