<?xml version="1.0" encoding="UTF-8"?>
<svg width="32" height="32" xmlns="http://www.w3.org/2000/svg" id="i-call-center" class="icons-item" viewBox="0 0 32 32" fill="none" stroke-linecap="round" stroke-linejoin="round">
     <g stroke="#7a73b7">
        <path d="M4.5,11 C4,-2.5 28,-2.5 27.5,11 , M27,22 Q26,27 20,29.5 , 
        M0.5,20 L0.5,13 4,11 C5,11 6,11 6,13 L6,20 C6,21.5 5,22 4,22 Z
        M31.5,13 L31.5,20 29,21.5 C27,22.5 26,22 26,20.5 , L26,12.5 C26,12.5 26,10 28,11 Z"></path>
        <rect x="12" y="27.5" width="8" height="4" rx="1.5" ry="1.5"/>
    </g>
</svg>