<?xml version="1.0" encoding="UTF-8"?>
<svg id="i-mochila-bg" width="32" height="32" xmlns="http://www.w3.org/2000/svg" class="bs-icon" viewBox="0 0 32 32" fill="none" stroke-linecap="round" stroke-linejoin="round">
  <g>
      <path stroke-width="0" fill="currentColor" d="M10,31 Q8,31 8,29 L8,20 Q8,13 13,13 Q13,12 14,12 L18,12 Q19,12 19,13 Q24,13 24,20 L24,29 Q24,31 22,31 Z
            M21,29 21,28 17,28 17,29 Z M21,26 21,25 11,25 11,26 M21,22 21,20 Q21,15 16,15 Q11,15 11,20 L11,22 L12,22 12,20 Q12,16 16,16 Q20,16 20,20 L20,22   
            M25,23 Q27,23 27,24 L27,27 Q27,28 25,28 M7,23 Q5,23 5,24 L 5,27 Q5,28 7,28 Z">
            </path>
      </g>
</svg>