<?xml version="1.0" encoding="UTF-8"?>
<svg id="uuid-96db1627-0d4a-4cce-8fe6-5c182fa03b27" data-name="Capa 2" xmlns="http://www.w3.org/2000/svg" width="97.8" height="91.5" viewBox="0 0 97.8 91.5">
  <defs>
    <style>
      .uuid-2f1e916c-17b3-4375-bcea-00fa47e2e40b {
        fill: none;
        stroke: #474751;
        stroke-linecap: round;
        stroke-linejoin: round;
        stroke-width: 3px;
      }
    </style>
  </defs>
  <g id="uuid-d573689b-299c-425a-bb14-c91e89f34458" data-name="delineado">
    <g>
      <path class="uuid-2f1e916c-17b3-4375-bcea-00fa47e2e40b" d="M15.1,14.8l-1.9-9.8L4.4,1.5,1.5,27.5l28.7,11.5L2.7,54.8l17.5,5.8,35.4-10.4s14.9,5.9,18.9,7.2c9.6,3.1,22,2.4,16.5-7.2-1.1-1.8-3.4-3.8-3.4-8.1,0-7-12.5-10.9-19.7-12.8-7.1-1.9-52.8-14.5-52.8-14.5Z"/>
      <polyline class="uuid-2f1e916c-17b3-4375-bcea-00fa47e2e40b" points="64.7 28.2 48.1 5.8 35.3 1.6 37.8 20.9"/>
      <path class="uuid-2f1e916c-17b3-4375-bcea-00fa47e2e40b" d="M40.4,32.9c-1.6-.6-3.6-1.3-3.6-1.3"/>
      <path class="uuid-2f1e916c-17b3-4375-bcea-00fa47e2e40b" d="M50.9,36.7c-1-.4-2.4-.9-4.6-1.7"/>
      <path class="uuid-2f1e916c-17b3-4375-bcea-00fa47e2e40b" d="M63.8,41.3c-1.3-.5-5.8-2.1-7.1-2.6"/>
      <path class="uuid-2f1e916c-17b3-4375-bcea-00fa47e2e40b" d="M86.5,44.7c-2.8,3.5-5.3,2.9-16.4-1.1"/>
      <line class="uuid-2f1e916c-17b3-4375-bcea-00fa47e2e40b" x1="53.5" y1="90" x2="96.3" y2="90"/>
    </g>
  </g>
</svg>