<?xml version="1.0" encoding="UTF-8"?>
<svg id="uuid-2d2a6e51-c140-41c7-aad5-f06d4a2ef27a" data-name="Capa 2" xmlns="http://www.w3.org/2000/svg" width="102.8" height="103.3" viewBox="0 0 102.8 103.3">
  <defs>
    <style>
      .uuid-d8282db3-7bfb-4e06-af52-7a35cd380114 {
        stroke-width: 3px;
      }

      .uuid-d8282db3-7bfb-4e06-af52-7a35cd380114, .uuid-cb4ea7bb-9abc-4f95-9f32-7436868649b9 {
        fill: none;
        stroke: #474751;
        stroke-linecap: round;
        stroke-linejoin: round;
      }

      .uuid-cb4ea7bb-9abc-4f95-9f32-7436868649b9 {
        stroke-width: 6px;
      }
    </style>
  </defs>
  <g id="uuid-49a7540f-bae3-4bda-967c-8352c1b42fba" data-name="delineado">
    <g>
      <g>
        <path class="uuid-d8282db3-7bfb-4e06-af52-7a35cd380114" d="M25.8,96.6H7.6c-3.4,0-6.1-2.7-6.1-6.1V27.6c0-3.4,2.7-6.1,6.1-6.1H57c3.4,0,6.1,2.7,6.1,6.1v9.8"/>
        <rect class="uuid-d8282db3-7bfb-4e06-af52-7a35cd380114" x="15.9" y="1.5" width="32.9" height="6.8" rx="3.4" ry="3.4"/>
        <line class="uuid-d8282db3-7bfb-4e06-af52-7a35cd380114" x1="20.6" y1="9.2" x2="20.6" y2="20.1"/>
        <line class="uuid-d8282db3-7bfb-4e06-af52-7a35cd380114" x1="15.9" y1="42.2" x2="15.9" y2="75.9"/>
        <line class="uuid-cb4ea7bb-9abc-4f95-9f32-7436868649b9" x1="11.9" y1="98.5" x2="11.9" y2="100.3"/>
        <line class="uuid-d8282db3-7bfb-4e06-af52-7a35cd380114" x1="32.3" y1="42.2" x2="32.3" y2="48.1"/>
        <line class="uuid-d8282db3-7bfb-4e06-af52-7a35cd380114" x1="45.2" y1="42.2" x2="45.2" y2="48.1"/>
        <line class="uuid-d8282db3-7bfb-4e06-af52-7a35cd380114" x1="43.9" y1="9.2" x2="43.9" y2="20.1"/>
      </g>
      <rect class="uuid-d8282db3-7bfb-4e06-af52-7a35cd380114" x="32.8" y="54.4" width="68.5" height="47" rx="4.3" ry="4.3"/>
      <path class="uuid-d8282db3-7bfb-4e06-af52-7a35cd380114" d="M57.4,53.6v-7.5c0-.7,.6-1.3,1.3-1.3h16.7c.7,0,1.3,.6,1.3,1.3v7.5"/>
      <line class="uuid-d8282db3-7bfb-4e06-af52-7a35cd380114" x1="87.9" y1="65.5" x2="87.9" y2="92.4"/>
      <line class="uuid-d8282db3-7bfb-4e06-af52-7a35cd380114" x1="45.2" y1="65.5" x2="45.2" y2="92.4"/>
    </g>
  </g>
</svg>