<?xml version="1.0" encoding="UTF-8"?>
<svg id="i-calendar" width="32" height="32" xmlns="http://www.w3.org/2000/svg" class="icons-item" viewBox="0 0 32 32" fill="none" stroke-linecap="round" stroke-linejoin="round">
    <g stroke="#7a73b7">
        <path d="M1 4 L1 31 31 31 31 4 Z 
                M11.5 14 L14.5 14 M17.5 14 L20.5 14 M23.5 14 L26.5 14
                M5.5 19 L8.5 19 M11.5 19 L14.5 19 M17.5 19 L20.5 19 M23.5 19 L26.5 19
                M5.5 24 L8.5 24 M11.5 24 L14.5 24 M17.5 24 L20.5 24 
                M7 1 L7 7 M13 1 L13 7 M19 1 L19 7 M25 1 L25 7"></path>
    </g>
</svg>