<?xml version="1.0" encoding="UTF-8"?>
<svg width="42" height="80" xmlns="http://www.w3.org/2000/svg" id="i-hotel" class="icons-item" viewBox="0 0 32 80" fill="none" stroke-linecap="round" stroke-linejoin="round">
    <g stroke="#7a73b7">
        <rect x="7.2" y="8.7" width="18" height="21" rx="2" ry="2"/>
        <path d="M8 27 L25 27, M13 8 L13 0.5 20 0.5 20 8, M13 3 L20 3, M11 23 L11 13, M21.5 23 L21.5 13, M10 30 L10 31.5, M23 30 L23 31.5"></path>
    </g>
    <g style="transform: translateY(48px)" stroke="#fd009e">
        <rect x="7.2" y="8.7" width="18" height="21" rx="2" ry="2"/>
        <path d="M8 27 L25 27, M13 8 L13 0.5 20 0.5 20 8, M13 3 L20 3, M11 23 L11 13, M21.5 23 L21.5 13, M10 30 L10 31.5, M23 30 L23 31.5"></path>
    </g>
</svg>