<?xml version="1.0" encoding="UTF-8"?>
<svg id="i-añonuevo" width="32" height="32" xmlns="http://www.w3.org/2000/svg" class="bs-icon" viewBox="0 0 32 32" fill="none" stroke-linecap="round" stroke-linejoin="round">
    <g stroke="#7a73b7"><path d="M6,27 9,31 1,28 6,27 8,22 Q4.5,20.5 6,16 L10,6.5 16,8.5 13.5,18 Q12,23 8,22 M26,27 23,31 31,28 26,27 24,22 Q20.5,23 19,19 L16,8.5 22,6.5 26,16 Q27.5,20.5 24,22 M8,12 15,12 M17,12 24,12 M14,5.5 11.7,3.5 M16,4 16,1 M18,5.5 20.3,3.5"></path>
    <circle stroke-width="0" fill="currentColor" cx="9.5" cy="14.5" r="0.8"/><circle stroke-width="0" fill="currentColor" cx="10.5" cy="17.5" r="1.2"/><circle stroke-width="0" fill="currentColor" cx="8" cy="19" r="0.5"/>
    <circle stroke-width="0" fill="currentColor" cx="22" cy="14.5" r="0.8"/><circle stroke-width="0" fill="currentColor" cx="21.5" cy="17.5" r="1.2"/><circle stroke-width="0" fill="currentColor" cx="24" cy="19" r="0.5"/></g>
</svg>