<?xml version="1.0" encoding="UTF-8"?>
<svg width="42" height="80" xmlns="http://www.w3.org/2000/svg" id="i-maletas-bodegas" class="icons-item" viewBox="0 0 32 80" fill="none" stroke-linecap="round" stroke-linejoin="round">
    <g stroke="#7a73b7">
        <g><path d="M6,27 Q6,29 8,29 L24,29 Q26,29 26,27 L26,8 Q26,6 24,6 L8,6 Q6,6 6,8 Z M11,12 11,23 M16,12 16,23 M21,12 21,23 M8,29 8,30 Q8,31 9,31 Q10,31 10,30 L10,29 M22,29 22,30 Q22,31 23,31 Q24,31 24,30 L24,29 M13,5 13,3 M19,5 19,3 M20,1 Q21,1 21,2 Q21,3 20,3 L12,3 Q11,3 11,2 Q11,1 12,1 Z"></path></g>
    </g>
    <g style="transform: translateY(48px)" stroke="#fd009e">
        <g><path d="M6,27 Q6,29 8,29 L24,29 Q26,29 26,27 L26,8 Q26,6 24,6 L8,6 Q6,6 6,8 Z M11,12 11,23 M16,12 16,23 M21,12 21,23 M8,29 8,30 Q8,31 9,31 Q10,31 10,30 L10,29 M22,29 22,30 Q22,31 23,31 Q24,31 24,30 L24,29 M13,5 13,3 M19,5 19,3 M20,1 Q21,1 21,2 Q21,3 20,3 L12,3 Q11,3 11,2 Q11,1 12,1 Z"></path></g>
    </g>
</svg>