<?xml version="1.0" encoding="UTF-8"?>
<svg width="42" height="80" xmlns="http://www.w3.org/2000/svg" id="i-salidas-confirmadas" class="icons-item" viewBox="0 0 32 80" fill="none" stroke-linecap="round" stroke-linejoin="round">
    <g stroke="#7a73b7">
        <path d="M18,31.5 L18,15 M22,31.5 L22,22 M26,31.5 L26,15 29,10 C30,7 32,2 28,1 M28,1 27,6 25,9 18,9 Q15,9 15,13 L15,20 Q15,23 18,23 
        M4.5,25 L4.5,29 M10.5,25 L10.5,29 M5.5,22 L5.5,19.5 10,19.5 10,22"></path>
        <circle cx="21.5" cy="3.5" r="3"/>
        <rect x="1.5" y="22.5" width="12" height="9" rx="1.5" ry="1.5"/>
    </g>
    <g style="transform: translateY(48px)" stroke="#fd009e">
        <path d="M18,31.5 L18,15 M22,31.5 L22,22 M26,31.5 L26,15 29,10 C30,7 32,2 28,1 M28,1 27,6 25,9 18,9 Q15,9 15,13 L15,20 Q15,23 18,23 
        M4.5,25 L4.5,29 M10.5,25 L10.5,29 M5.5,22 L5.5,19.5 10,19.5 10,22"></path>
        <circle cx="21.5" cy="3.5" r="3"/>
        <rect x="1.5" y="22.5" width="12" height="9" rx="1.5" ry="1.5"/>
    </g>
</svg>