<?xml version="1.0" encoding="UTF-8"?>
<svg id="i-crucero" width="32" height="32" xmlns="http://www.w3.org/2000/svg" class="bs-icon" viewBox="0 0 32 32" fill="none" stroke-linecap="round" stroke-linejoin="round">
    <g stroke="#7a73b7"><path d="M5,26 1,18 Q1,17 2,16 C16,10 16,10 30,16 Q31,17 31,18 L27,26 M5,14 5,9 Q16,4 27,9 L27,14 M7,8 7,5 Q16,2 25,5 L25,8 M13,3 15,1 17,1 19,3 M8,11 Q16,7 24,11
        M1,28 C3,28 3,26 5,26 C7,26 6,28 8.5,28 C11,28 10,26 12,26 C14,26 13.5,28 16,28 C18.5,28 18,26 20,26 C22,26 20.5,28 23.5,28 C25,28 25,26 27,26 C29,26 29,28 31,28
        M1,31 C3,31 3,29 5,29 C7,29 6,31 8.5,31 C11,31 10,29 12,29 C14,29 13.5,31 16,31 C18.5,31 18,29 20,29 C22,29 20.5,31 23.5,31 C25,31 25,29 27,29 C29,29 29,31 31,31"></path>
    </g>
</svg>